<svg viewBox="0 0 512 512">
    <path d="M144.266 341.578c0 9.469-1.969 17.672-5.907 24.61-3.937 6.937-9.257 12.609-15.961 17.015-6.703 4.406-14.226 7.641-22.57 9.703v.844c16.5 2.063 29.039 7.125 37.617 15.188 8.578 8.062 12.868 18.843 12.868 32.343 0 12-2.93 22.735-8.79 32.203-5.859 9.469-14.882 16.922-27.07 22.36-12.187 5.437-27.89 8.156-47.109 8.156-11.344 0-21.914-.914-31.711-2.742-9.797-1.828-19.008-4.617-27.633-8.367v-36.985a123.597 123.597 0 0 0 27.703 10.196c9.656 2.296 18.656 3.445 27 3.445 15.563 0 26.461-2.695 32.695-8.086 6.235-5.391 9.352-12.961 9.352-22.711 0-5.719-1.453-10.547-4.359-14.484-2.907-3.938-7.946-6.938-15.118-9-7.171-2.063-17.179-3.094-30.023-3.094H39.641v-33.328h15.89c12.657 0 22.289-1.196 28.899-3.586 6.609-2.391 11.109-5.672 13.5-9.844 2.39-4.172 3.586-8.93 3.586-14.273 0-7.313-2.25-13.032-6.75-17.157s-12-6.187-22.5-6.187c-6.563 0-12.539.82-17.93 2.461-5.391 1.64-10.242 3.609-14.555 5.906-4.312 2.297-8.109 4.524-11.39 6.68l-20.11-29.953c8.063-5.813 17.508-10.641 28.336-14.485 10.828-3.843 23.742-5.765 38.742-5.765 21.188 0 37.969 4.265 50.344 12.797 12.375 8.531 18.563 20.578 18.563 36.14Zm171.562 56.813c0 16.593-1.289 31.406-3.867 44.437-2.578 13.031-6.703 24.094-12.375 33.188-5.672 9.093-13.102 16.031-22.289 20.812-9.188 4.781-20.344 7.172-33.469 7.172-16.5 0-30.047-4.195-40.64-12.586-10.594-8.391-18.422-20.484-23.485-36.281-5.062-15.797-7.594-34.711-7.594-56.742 0-22.219 2.321-41.227 6.961-57.024 4.641-15.797 12.211-27.914 22.711-36.351 10.5-8.438 24.516-12.657 42.047-12.657 16.406 0 29.93 4.196 40.57 12.586 10.641 8.391 18.54 20.485 23.696 36.282 5.156 15.796 7.734 34.851 7.734 57.164Zm-100.547 0c0 15.656.867 28.711 2.602 39.164 1.734 10.453 4.664 18.304 8.789 23.554s9.844 7.875 17.156 7.875c7.219 0 12.914-2.601 17.086-7.804 4.172-5.203 7.149-13.032 8.93-23.485 1.781-10.453 2.672-23.554 2.672-39.304 0-15.657-.891-28.735-2.672-39.235-1.781-10.5-4.758-18.398-8.93-23.695-4.172-5.297-9.867-7.945-17.086-7.945-7.312 0-13.031 2.648-17.156 7.945-4.125 5.297-7.055 13.195-8.789 23.695-1.735 10.5-2.602 23.578-2.602 39.235ZM424 256c0 41.127-14.678 79.997-41.556 110.63-4.161 4.743-3.908 11.906.553 16.368l39.662 39.662c4.872 4.872 12.815 4.631 17.433-.482C479.813 378.202 504 319.926 504 256 504 121.034 396.185 11.249 261.966 8.071l-2.12-.042-1.472-.018c-.942-.009-1.885-.013-2.829-.011-66.269.119-126.438 26.233-170.86 68.685L48.971 40.971C33.851 25.851 8 36.559 8 57.941V192c0 13.255 10.745 24 24 24h134.059c21.382 0 32.09-25.851 16.971-40.971l-41.75-41.75c30.864-28.899 70.801-44.907 113.23-45.273L256 88c.439 0 .887.002 1.337.005l.935.01c17.815.27 35.538 3.323 52.386 9.133a168.792 168.792 0 0 1 42.894 22.117 169.258 169.258 0 0 1 35.973 34.726 167.014 167.014 0 0 1 24.538 44.822 166.867 166.867 0 0 1 8.546 35.379A173.021 173.021 0 0 1 424 256Z" style="fill-rule:nonzero"/>
</svg>
