<svg viewBox="0 0 512 512">
    <path d="M83.375 369.844c12.563 0 23.742 2.39 33.539 7.172 9.797 4.781 17.508 11.812 23.133 21.093 5.625 9.282 8.437 20.719 8.437 34.313 0 14.812-3.07 27.586-9.211 38.32-6.14 10.735-15.281 18.961-27.421 24.68C99.711 501.141 84.594 504 66.5 504c-10.781 0-20.93-.914-30.445-2.742-9.516-1.828-17.836-4.617-24.961-8.367v-37.547c7.125 3.75 15.679 6.914 25.664 9.492 9.984 2.578 19.383 3.867 28.195 3.867 8.625 0 15.891-1.148 21.797-3.445 5.906-2.297 10.383-5.86 13.43-10.688 3.047-4.828 4.57-10.992 4.57-18.492 0-10.031-3.375-17.719-10.125-23.062-6.75-5.344-17.109-8.016-31.078-8.016-5.344 0-10.899.516-16.664 1.547-5.766 1.031-10.57 2.062-14.414 3.094l-17.297-9.282 7.734-104.765h111.516v36.844H61.016l-3.797 40.359a356.656 356.656 0 0 1 10.406-1.969c3.75-.656 9-.984 15.75-.984Zm233.684 11.215c13.359 0 23.466 3.427 30.322 10.283 6.855 6.855 10.283 17.842 10.283 32.959v76.887h-32.273v-68.872c0-8.437-1.442-14.8-4.325-19.089-2.882-4.289-7.347-6.434-13.394-6.434-8.508 0-14.555 3.041-18.141 9.123-3.586 6.082-5.379 14.783-5.379 26.104v59.168h-32.168v-68.872c0-5.625-.632-10.336-1.898-14.132-1.266-3.797-3.199-6.645-5.801-8.543-2.601-1.899-5.941-2.848-10.019-2.848-5.977 0-10.67 1.494-14.08 4.482-3.411 2.989-5.836 7.383-7.278 13.184-1.441 5.801-2.162 12.885-2.162 21.252v55.477h-32.168V383.273h24.574l4.325 15.082h1.793c2.39-4.078 5.396-7.382 9.017-9.914 3.621-2.531 7.611-4.394 11.971-5.589a50.003 50.003 0 0 1 13.289-1.793c8.648 0 15.978 1.406 21.99 4.218 6.012 2.813 10.635 7.172 13.869 13.078h2.848c3.516-6.046 8.49-10.441 14.924-13.183 6.433-2.742 13.06-4.113 19.881-4.113ZM424 256c0 41.127-14.678 79.997-41.556 110.63-4.161 4.743-3.908 11.906.553 16.368l39.662 39.662c4.872 4.872 12.815 4.631 17.433-.482C479.813 378.202 504 319.926 504 256 504 121.034 396.185 11.249 261.966 8.071l-2.12-.042-1.472-.018c-.942-.009-1.885-.013-2.829-.011-66.269.119-126.438 26.233-170.86 68.685L48.971 40.971C33.851 25.851 8 36.559 8 57.941V192c0 13.255 10.745 24 24 24h134.059c21.382 0 32.09-25.851 16.971-40.971l-41.75-41.75c30.864-28.899 70.801-44.907 113.23-45.273L256 88c.439 0 .887.002 1.337.005l.935.01c17.815.27 35.538 3.323 52.386 9.133a168.792 168.792 0 0 1 42.894 22.117 169.258 169.258 0 0 1 35.973 34.726 167.014 167.014 0 0 1 24.538 44.822 166.867 166.867 0 0 1 8.546 35.379A173.021 173.021 0 0 1 424 256Z" style="fill-rule:nonzero"/>
</svg>
