<svg width="100%" height="100%" viewBox="0 0 512 512" version="1.1">
    <path d="M83.375,369.844C95.938,369.844 107.117,372.234 116.914,377.016C126.711,381.797 134.422,388.828 140.047,398.109C145.672,407.391 148.484,418.828 148.484,432.422C148.484,447.234 145.414,460.008 139.273,470.742C133.133,481.477 123.992,489.703 111.852,495.422C99.711,501.141 84.594,504 66.5,504C55.719,504 45.57,503.086 36.055,501.258C26.539,499.43 18.219,496.641 11.094,492.891L11.094,455.344C18.219,459.094 26.773,462.258 36.758,464.836C46.742,467.414 56.141,468.703 64.953,468.703C73.578,468.703 80.844,467.555 86.75,465.258C92.656,462.961 97.133,459.398 100.18,454.57C103.227,449.742 104.75,443.578 104.75,436.078C104.75,426.047 101.375,418.359 94.625,413.016C87.875,407.672 77.516,405 63.547,405C58.203,405 52.648,405.516 46.883,406.547C41.117,407.578 36.313,408.609 32.469,409.641L15.172,400.359L22.906,295.594L134.422,295.594L134.422,332.438L61.016,332.438L57.219,372.797C60.406,372.141 63.875,371.484 67.625,370.828C71.375,370.172 76.625,369.844 83.375,369.844ZM317.059,381.059C330.418,381.059 340.525,384.486 347.381,391.342C354.236,398.197 357.664,409.184 357.664,424.301L357.664,501.188L325.391,501.188L325.391,432.316C325.391,423.879 323.949,417.516 321.066,413.227C318.184,408.938 313.719,406.793 307.672,406.793C299.164,406.793 293.117,409.834 289.531,415.916C285.945,421.998 284.152,430.699 284.152,442.02L284.152,501.188L251.984,501.188L251.984,432.316C251.984,426.691 251.352,421.98 250.086,418.184C248.82,414.387 246.887,411.539 244.285,409.641C241.684,407.742 238.344,406.793 234.266,406.793C228.289,406.793 223.596,408.287 220.186,411.275C216.775,414.264 214.35,418.658 212.908,424.459C211.467,430.26 210.746,437.344 210.746,445.711L210.746,501.188L178.578,501.188L178.578,383.273L203.152,383.273L207.477,398.355L209.27,398.355C211.66,394.277 214.666,390.973 218.287,388.441C221.908,385.91 225.898,384.047 230.258,382.852C234.617,381.656 239.047,381.059 243.547,381.059C252.195,381.059 259.525,382.465 265.537,385.277C271.549,388.09 276.172,392.449 279.406,398.355L282.254,398.355C285.77,392.309 290.744,387.914 297.178,385.172C303.611,382.43 310.238,381.059 317.059,381.059ZM424,256L424,256C424,297.127 409.322,335.997 382.444,366.63C378.283,371.373 378.536,378.536 382.997,382.998L422.659,422.66C427.531,427.532 435.474,427.291 440.092,422.178C479.813,378.202 504,319.926 504,256C504,121.034 396.185,11.249 261.966,8.071L259.846,8.029L258.374,8.011C257.432,8.002 256.489,7.998 255.545,8C189.276,8.119 129.107,34.233 84.685,76.685L48.971,40.971C33.851,25.851 8,36.559 8,57.941L8,192C8,205.255 18.745,216 32,216L166.059,216C187.441,216 198.149,190.149 183.03,175.029L141.28,133.279C172.144,104.38 212.081,88.372 254.51,88.006L256,88C256.439,88 256.887,88.002 257.337,88.005L258.272,88.015C276.087,88.285 293.81,91.338 310.658,97.148C325.921,102.413 340.408,109.891 353.552,119.265C367.174,128.979 379.342,140.716 389.525,153.991C399.936,167.563 408.251,182.725 414.063,198.813C418.194,210.248 421.058,222.134 422.609,234.192C423.54,241.424 423.988,248.709 424,256Z" style="fill-rule:nonzero;"/>
</svg>
