<svg width="100%" height="100%" viewBox="0 0 512 512" version="1.1">
    <path d="M144.266,341.578C144.266,351.047 142.297,359.25 138.359,366.188C134.422,373.125 129.102,378.797 122.398,383.203C115.695,387.609 108.172,390.844 99.828,392.906L99.828,393.75C116.328,395.813 128.867,400.875 137.445,408.938C146.023,417 150.313,427.781 150.313,441.281C150.313,453.281 147.383,464.016 141.523,473.484C135.664,482.953 126.641,490.406 114.453,495.844C102.266,501.281 86.563,504 67.344,504C56,504 45.43,503.086 35.633,501.258C25.836,499.43 16.625,496.641 8,492.891L8,455.906C16.813,460.406 26.047,463.805 35.703,466.102C45.359,468.398 54.359,469.547 62.703,469.547C78.266,469.547 89.164,466.852 95.398,461.461C101.633,456.07 104.75,448.5 104.75,438.75C104.75,433.031 103.297,428.203 100.391,424.266C97.484,420.328 92.445,417.328 85.273,415.266C78.102,413.203 68.094,412.172 55.25,412.172L39.641,412.172L39.641,378.844L55.531,378.844C68.188,378.844 77.82,377.648 84.43,375.258C91.039,372.867 95.539,369.586 97.93,365.414C100.32,361.242 101.516,356.484 101.516,351.141C101.516,343.828 99.266,338.109 94.766,333.984C90.266,329.859 82.766,327.797 72.266,327.797C65.703,327.797 59.727,328.617 54.336,330.258C48.945,331.898 44.094,333.867 39.781,336.164C35.469,338.461 31.672,340.688 28.391,342.844L8.281,312.891C16.344,307.078 25.789,302.25 36.617,298.406C47.445,294.563 60.359,292.641 75.359,292.641C96.547,292.641 113.328,296.906 125.703,305.438C138.078,313.969 144.266,326.016 144.266,341.578ZM315.828,398.391C315.828,414.984 314.539,429.797 311.961,442.828C309.383,455.859 305.258,466.922 299.586,476.016C293.914,485.109 286.484,492.047 277.297,496.828C268.109,501.609 256.953,504 243.828,504C227.328,504 213.781,499.805 203.188,491.414C192.594,483.023 184.766,470.93 179.703,455.133C174.641,439.336 172.109,420.422 172.109,398.391C172.109,376.172 174.43,357.164 179.07,341.367C183.711,325.57 191.281,313.453 201.781,305.016C212.281,296.578 226.297,292.359 243.828,292.359C260.234,292.359 273.758,296.555 284.398,304.945C295.039,313.336 302.938,325.43 308.094,341.227C313.25,357.023 315.828,376.078 315.828,398.391ZM215.281,398.391C215.281,414.047 216.148,427.102 217.883,437.555C219.617,448.008 222.547,455.859 226.672,461.109C230.797,466.359 236.516,468.984 243.828,468.984C251.047,468.984 256.742,466.383 260.914,461.18C265.086,455.977 268.063,448.148 269.844,437.695C271.625,427.242 272.516,414.141 272.516,398.391C272.516,382.734 271.625,369.656 269.844,359.156C268.063,348.656 265.086,340.758 260.914,335.461C256.742,330.164 251.047,327.516 243.828,327.516C236.516,327.516 230.797,330.164 226.672,335.461C222.547,340.758 219.617,348.656 217.883,359.156C216.148,369.656 215.281,382.734 215.281,398.391ZM424,256L424,256C424,297.127 409.322,335.997 382.444,366.63C378.283,371.373 378.536,378.536 382.997,382.998L422.659,422.66C427.531,427.532 435.474,427.291 440.092,422.178C479.813,378.202 504,319.926 504,256C504,121.034 396.185,11.249 261.966,8.071L259.846,8.029L258.374,8.011C257.432,8.002 256.489,7.998 255.545,8C189.276,8.119 129.107,34.233 84.685,76.685L48.971,40.971C33.851,25.851 8,36.559 8,57.941L8,192C8,205.255 18.745,216 32,216L166.059,216C187.441,216 198.149,190.149 183.03,175.029L141.28,133.279C172.144,104.38 212.081,88.372 254.51,88.006L256,88C256.439,88 256.887,88.002 257.337,88.005L258.272,88.015C276.087,88.285 293.81,91.338 310.658,97.148C325.921,102.413 340.408,109.891 353.552,119.265C367.174,128.979 379.342,140.716 389.525,153.991C399.936,167.563 408.251,182.725 414.063,198.813C418.194,210.248 421.058,222.134 422.609,234.192C423.54,241.424 423.988,248.709 424,256Z" style="fill-rule:nonzero;"/>
</svg>
