<svg width="100%" height="100%" viewBox="0 0 512 512" version="1.1">
    <path d="M332.438,341.578C332.438,351.047 330.469,359.25 326.531,366.188C322.594,373.125 317.273,378.797 310.57,383.203C303.867,387.609 296.344,390.844 288,392.906L288,393.75C304.5,395.813 317.039,400.875 325.617,408.938C334.195,417 338.484,427.781 338.484,441.281C338.484,453.281 335.555,464.016 329.695,473.484C323.836,482.953 314.813,490.406 302.625,495.844C290.438,501.281 274.734,504 255.516,504C244.172,504 233.602,503.086 223.805,501.258C214.008,499.43 204.797,496.641 196.172,492.891L196.172,455.906C204.984,460.406 214.219,463.805 223.875,466.102C233.531,468.398 242.531,469.547 250.875,469.547C266.438,469.547 277.336,466.852 283.57,461.461C289.805,456.07 292.922,448.5 292.922,438.75C292.922,433.031 291.469,428.203 288.563,424.266C285.656,420.328 280.617,417.328 273.445,415.266C266.273,413.203 256.266,412.172 243.422,412.172L227.813,412.172L227.813,378.844L243.703,378.844C256.359,378.844 265.992,377.648 272.602,375.258C279.211,372.867 283.711,369.586 286.102,365.414C288.492,361.242 289.688,356.484 289.688,351.141C289.688,343.828 287.438,338.109 282.938,333.984C278.438,329.859 270.938,327.797 260.438,327.797C253.875,327.797 247.898,328.617 242.508,330.258C237.117,331.898 232.266,333.867 227.953,336.164C223.641,338.461 219.844,340.688 216.563,342.844L196.453,312.891C204.516,307.078 213.961,302.25 224.789,298.406C235.617,294.563 248.531,292.641 263.531,292.641C284.719,292.641 301.5,296.906 313.875,305.438C326.25,313.969 332.438,326.016 332.438,341.578ZM504,398.391C504,414.984 502.711,429.797 500.133,442.828C497.555,455.859 493.43,466.922 487.758,476.016C482.086,485.109 474.656,492.047 465.469,496.828C456.281,501.609 445.125,504 432,504C415.5,504 401.953,499.805 391.359,491.414C380.766,483.023 372.938,470.93 367.875,455.133C362.813,439.336 360.281,420.422 360.281,398.391C360.281,376.172 362.602,357.164 367.242,341.367C371.883,325.57 379.453,313.453 389.953,305.016C400.453,296.578 414.469,292.359 432,292.359C448.406,292.359 461.93,296.555 472.57,304.945C483.211,313.336 491.109,325.43 496.266,341.227C501.422,357.023 504,376.078 504,398.391ZM403.453,398.391C403.453,414.047 404.32,427.102 406.055,437.555C407.789,448.008 410.719,455.859 414.844,461.109C418.969,466.359 424.688,468.984 432,468.984C439.219,468.984 444.914,466.383 449.086,461.18C453.258,455.977 456.234,448.148 458.016,437.695C459.797,427.242 460.688,414.141 460.688,398.391C460.688,382.734 459.797,369.656 458.016,359.156C456.234,348.656 453.258,340.758 449.086,335.461C444.914,330.164 439.219,327.516 432,327.516C424.688,327.516 418.969,330.164 414.844,335.461C410.719,340.758 407.789,348.656 406.055,359.156C404.32,369.656 403.453,382.734 403.453,398.391ZM253.626,8.011C254.568,8.002 255.511,7.998 256.455,8C322.724,8.119 382.893,34.233 427.315,76.685L463.029,40.971C478.149,25.851 504,36.559 504,57.941L504,192C504,205.255 493.255,216 480,216L345.941,216C324.559,216 313.851,190.149 328.97,175.029L370.72,133.279C339.856,104.38 299.919,88.372 257.49,88.006L256,88C255.561,88 255.113,88.002 254.663,88.005L254.244,88.009C163.744,88.962 88.002,162.341 88,256L88,256C88,297.127 102.678,335.997 129.556,366.63C133.717,371.373 133.464,378.536 129.003,382.998L89.341,422.66C84.469,427.532 76.526,427.291 71.908,422.178C32.187,378.202 8,319.926 8,256C8,121.034 115.815,11.249 250.034,8.071L252.154,8.029L253.626,8.011Z" style="fill-rule:nonzero;"/>
</svg>
