<svg width="100%" height="100%" viewBox="0 0 512 512" version="1.1">
    <path d="M229.711,369.844C242.273,369.844 253.453,372.234 263.25,377.016C273.047,381.797 280.758,388.828 286.383,398.109C292.008,407.391 294.82,418.828 294.82,432.422C294.82,447.234 291.75,460.008 285.609,470.742C279.469,481.477 270.328,489.703 258.188,495.422C246.047,501.141 230.93,504 212.836,504C202.055,504 191.906,503.086 182.391,501.258C172.875,499.43 164.555,496.641 157.43,492.891L157.43,455.344C164.555,459.094 173.109,462.258 183.094,464.836C193.078,467.414 202.477,468.703 211.289,468.703C219.914,468.703 227.18,467.555 233.086,465.258C238.992,462.961 243.469,459.398 246.516,454.57C249.563,449.742 251.086,443.578 251.086,436.078C251.086,426.047 247.711,418.359 240.961,413.016C234.211,407.672 223.852,405 209.883,405C204.539,405 198.984,405.516 193.219,406.547C187.453,407.578 182.648,408.609 178.805,409.641L161.508,400.359L169.242,295.594L280.758,295.594L280.758,332.438L207.352,332.438L203.555,372.797C206.742,372.141 210.211,371.484 213.961,370.828C217.711,370.172 222.961,369.844 229.711,369.844ZM463.395,381.059C476.754,381.059 486.861,384.486 493.717,391.342C500.572,398.197 504,409.184 504,424.301L504,501.188L471.727,501.188L471.727,432.316C471.727,423.879 470.285,417.516 467.402,413.227C464.52,408.938 460.055,406.793 454.008,406.793C445.5,406.793 439.453,409.834 435.867,415.916C432.281,421.998 430.488,430.699 430.488,442.02L430.488,501.188L398.32,501.188L398.32,432.316C398.32,426.691 397.688,421.98 396.422,418.184C395.156,414.387 393.223,411.539 390.621,409.641C388.02,407.742 384.68,406.793 380.602,406.793C374.625,406.793 369.932,408.287 366.521,411.275C363.111,414.264 360.686,418.658 359.244,424.459C357.803,430.26 357.082,437.344 357.082,445.711L357.082,501.188L324.914,501.188L324.914,383.273L349.488,383.273L353.813,398.355L355.605,398.355C357.996,394.277 361.002,390.973 364.623,388.441C368.244,385.91 372.234,384.047 376.594,382.852C380.953,381.656 385.383,381.059 389.883,381.059C398.531,381.059 405.861,382.465 411.873,385.277C417.885,388.09 422.508,392.449 425.742,398.355L428.59,398.355C432.105,392.309 437.08,387.914 443.514,385.172C449.947,382.43 456.574,381.059 463.395,381.059ZM253.626,8.011C254.568,8.002 255.511,7.998 256.455,8C322.724,8.119 382.893,34.233 427.315,76.685L463.029,40.971C478.149,25.851 504,36.559 504,57.941L504,192C504,205.255 493.255,216 480,216L345.941,216C324.559,216 313.851,190.149 328.97,175.029L370.72,133.279C339.856,104.38 299.919,88.372 257.49,88.006L256,88C255.561,88 255.113,88.002 254.663,88.005L254.244,88.009C163.744,88.962 88.002,162.341 88,256L88,256C88,297.127 102.678,335.997 129.556,366.63C133.717,371.373 133.464,378.536 129.003,382.998L89.341,422.66C84.469,427.532 76.526,427.291 71.908,422.178C32.187,378.202 8,319.926 8,256C8,121.034 115.815,11.249 250.034,8.071L252.154,8.029L253.626,8.011Z" style="fill-rule:nonzero;"/>
</svg>
